<svg version="1.1" id="Layer_1" xmlns="http://www.w3.org/2000/svg" xmlns:xlink="http://www.w3.org/1999/xlink" x="0px" y="0px"
	 width="100%" viewBox="0 0 281 280" enable-background="new 0 0 281 280" xml:space="preserve">
<path fill="#FFFFFF" opacity="1.000000" stroke="none" 
	d="
M1.000000,273.000000 
	C1.000000,186.645767 1.000000,100.291542 1.396686,13.464771 
	C3.703043,8.305686 5.965742,3.928106 11.202492,2.098273 
	C11.256340,2.079457 11.072747,1.381114 11.000000,1.000000 
	C99.020897,1.000000 187.041794,1.000000 275.243408,1.291370 
	C277.616089,4.055161 279.808044,6.527584 282.000000,9.000003 
	C282.000000,97.354225 282.000000,185.708450 281.625366,274.531403 
	C279.167175,277.000092 277.083588,279.000061 275.000000,281.000000 
	C186.645767,281.000000 98.291542,281.000000 9.754045,280.721802 
	C6.713851,277.962372 3.856925,275.481201 1.000000,273.000000 
M34.000000,199.500000 
	C34.000000,215.263107 34.000000,231.026230 34.000000,246.712097 
	C105.978561,246.712097 177.380905,246.712097 248.712051,246.712097 
	C248.712051,175.688095 248.712051,104.952377 248.712051,34.287937 
	C177.021378,34.287937 105.619026,34.287937 34.000000,34.287937 
	C34.000000,89.217056 34.000000,143.858536 34.000000,199.500000 
z"/>
<path fill="#000000" opacity="1.000000" stroke="none" 
	d="
M10.513435,1.000000 
	C11.072747,1.381114 11.256340,2.079457 11.202492,2.098273 
	C5.965742,3.928106 3.703043,8.305686 1.396686,12.996115 
	C1.000000,9.088024 1.000000,5.176048 1.000000,1.000000 
	C4.006122,1.000000 7.016497,1.000000 10.513435,1.000000 
z"/>
<path fill="#000000" opacity="1.000000" stroke="none" 
	d="
M1.000000,273.494751 
	C3.856925,275.481201 6.713851,277.962372 9.285389,280.721802 
	C6.417543,281.000000 3.835087,281.000000 1.000000,281.000000 
	C1.000000,278.666077 1.000000,276.327789 1.000000,273.494751 
z"/>
<path fill="#000000" opacity="1.000000" stroke="none" 
	d="
M282.000000,8.505270 
	C279.808044,6.527584 277.616089,4.055161 275.712097,1.291370 
	C277.927490,1.000000 279.854980,1.000000 282.000000,1.000000 
	C282.000000,3.334748 282.000000,5.672641 282.000000,8.505270 
z"/>
<path fill="#000000" opacity="1.000000" stroke="none" 
	d="
M275.497925,281.000000 
	C277.083588,279.000061 279.167175,277.000092 281.625366,275.000061 
	C282.000000,276.920654 282.000000,278.841339 282.000000,281.000000 
	C280.001343,281.000000 277.998566,281.000000 275.497925,281.000000 
z"/>
<path fill="#000000" opacity="1.000000" stroke="none" 
	d="
M34.000000,199.000000 
	C34.000000,143.858536 34.000000,89.217056 34.000000,34.287937 
	C105.619026,34.287937 177.021378,34.287937 248.712051,34.287937 
	C248.712051,104.952377 248.712051,175.688095 248.712051,246.712097 
	C177.380905,246.712097 105.978561,246.712097 34.000000,246.712097 
	C34.000000,231.026230 34.000000,215.263107 34.000000,199.000000 
M74.866066,118.354065 
	C79.830696,125.322487 84.174217,132.857346 89.897934,139.133484 
	C99.768646,149.956848 110.498581,159.996567 120.866219,170.366852 
	C127.736504,177.238876 134.603729,184.113953 141.506866,191.022232 
	C160.425476,172.095734 179.119492,153.555084 197.582947,134.787643 
	C201.303741,131.005585 204.314636,126.477661 207.362869,122.092094 
	C212.394501,114.852951 206.425858,100.960686 194.407608,99.849396 
	C185.542480,99.029663 180.375000,104.600754 175.091690,109.604706 
	C163.859909,120.242630 153.188354,131.472061 142.122864,142.624603 
	C136.207001,137.061752 130.775497,132.004089 125.399864,126.887695 
	C117.599625,119.463638 109.863747,111.971886 102.054901,104.556938 
	C96.025238,98.831436 89.842888,98.813011 84.572418,101.208595 
	C77.110367,104.600311 73.663498,110.471703 74.866066,118.354065 
z"/>
<path fill="#FFFFFF" opacity="1.000000" stroke="none" 
	d="
M74.564575,118.074341 
	C73.663498,110.471703 77.110367,104.600311 84.572418,101.208595 
	C89.842888,98.813011 96.025238,98.831436 102.054901,104.556938 
	C109.863747,111.971886 117.599625,119.463638 125.399864,126.887695 
	C130.775497,132.004089 136.207001,137.061752 142.122864,142.624603 
	C153.188354,131.472061 163.859909,120.242630 175.091690,109.604706 
	C180.375000,104.600754 185.542480,99.029663 194.407608,99.849396 
	C206.425858,100.960686 212.394501,114.852951 207.362869,122.092094 
	C204.314636,126.477661 201.303741,131.005585 197.582947,134.787643 
	C179.119492,153.555084 160.425476,172.095734 141.506866,191.022232 
	C134.603729,184.113953 127.736504,177.238876 120.866219,170.366852 
	C110.498581,159.996567 99.768646,149.956848 89.897934,139.133484 
	C84.174217,132.857346 79.830696,125.322487 74.564575,118.074341 
z"/>
</svg>