<svg version="1.1" id="Layer_1" xmlns="http://www.w3.org/2000/svg" xmlns:xlink="http://www.w3.org/1999/xlink" x="0px" y="0px"
	 width="100%" viewBox="0 0 811 194" enable-background="new 0 0 811 194" xml:space="preserve">
<path fill="#FFFFFF" opacity="1.000000" stroke="none" 
	d="
M1.000003,188.000000 
	C1.000000,128.641754 1.000000,69.283516 1.288787,9.749823 
	C4.051716,6.716246 6.525858,3.858123 9.000000,1.000000 
	C274.691559,1.000000 540.383118,1.000000 806.247681,1.297931 
	C808.280396,3.730582 810.140198,5.865302 812.000000,8.000010 
	C812.000000,68.024910 812.000000,128.049820 811.641357,188.538727 
	C809.521790,191.001816 807.760925,193.000916 806.000000,195.000000 
	C540.308411,195.000000 274.616852,195.000000 8.748054,194.721588 
	C6.047222,192.295456 3.523614,190.147720 1.000003,188.000000 
M185.500000,33.000000 
	C135.072266,33.000000 84.644524,33.000000 34.290398,33.000000 
	C34.290398,76.313072 34.290398,119.050987 34.290398,161.712646 
	C282.647766,161.712646 530.714600,161.712646 778.709473,161.712646 
	C778.709473,118.686745 778.709473,75.948837 778.709473,33.000000 
	C581.112732,33.000000 383.806366,33.000000 185.500000,33.000000 
z"/>
<path fill="#000000" opacity="1.000000" stroke="none" 
	d="
M8.505266,1.000000 
	C6.525858,3.858123 4.051716,6.716246 1.288787,9.287185 
	C1.000000,6.417543 1.000000,3.835086 1.000000,1.000000 
	C3.333921,1.000000 5.672227,1.000000 8.505266,1.000000 
z"/>
<path fill="#000000" opacity="1.000000" stroke="none" 
	d="
M1.000003,188.497910 
	C3.523614,190.147720 6.047222,192.295456 8.285416,194.721588 
	C5.752364,195.000000 3.504728,195.000000 1.000000,195.000000 
	C1.000000,193.001862 1.000000,190.998840 1.000003,188.497910 
z"/>
<path fill="#000000" opacity="1.000000" stroke="none" 
	d="
M806.499512,195.000000 
	C807.760925,193.000916 809.521790,191.001816 811.641357,189.001373 
	C812.000000,190.913223 812.000000,192.826447 812.000000,195.000000 
	C810.336548,195.000000 808.667786,195.000000 806.499512,195.000000 
z"/>
<path fill="#000000" opacity="1.000000" stroke="none" 
	d="
M812.000000,7.502106 
	C810.140198,5.865302 808.280396,3.730582 806.710327,1.297931 
	C808.594788,1.000000 810.189636,1.000000 812.000000,1.000000 
	C812.000000,2.999218 812.000000,5.001704 812.000000,7.502106 
z"/>
<path fill="#000000" opacity="1.000000" stroke="none" 
	d="
M186.000000,33.000000 
	C383.806366,33.000000 581.112732,33.000000 778.709473,33.000000 
	C778.709473,75.948837 778.709473,118.686745 778.709473,161.712646 
	C530.714600,161.712646 282.647766,161.712646 34.290398,161.712646 
	C34.290398,119.050987 34.290398,76.313072 34.290398,33.000000 
	C84.644524,33.000000 135.072266,33.000000 186.000000,33.000000 
M341.506348,92.995880 
	C339.903137,94.376350 338.299927,95.756821 336.644501,97.182281 
	C347.875092,108.399796 358.604736,119.112762 369.329498,129.830582 
	C378.766357,139.261292 378.764008,139.263657 388.753448,128.494141 
	C380.484528,120.306984 372.180542,112.085098 363.818237,103.805504 
	C398.646271,103.805504 433.708740,103.805504 468.719971,103.805504 
	C468.719971,90.032570 468.719971,76.627853 468.719971,63.283413 
	C464.361389,63.283413 460.288513,63.283413 455.828979,63.283413 
	C455.828979,72.638069 455.828979,81.714783 455.828979,90.696487 
	C424.744934,90.696487 394.061279,90.696487 362.983521,90.696487 
	C371.607147,82.186554 379.879059,74.023689 388.055328,65.955231 
	C384.671021,62.473030 381.572815,59.285175 378.414154,56.035126 
	C366.256897,68.208733 354.129944,80.352005 341.506348,92.995880 
z"/>
<path fill="#FFFFFF" opacity="1.000000" stroke="none" 
	d="
M341.754669,92.745575 
	C354.129944,80.352005 366.256897,68.208733 378.414154,56.035126 
	C381.572815,59.285175 384.671021,62.473030 388.055328,65.955231 
	C379.879059,74.023689 371.607147,82.186554 362.983521,90.696487 
	C394.061279,90.696487 424.744934,90.696487 455.828979,90.696487 
	C455.828979,81.714783 455.828979,72.638069 455.828979,63.283413 
	C460.288513,63.283413 464.361389,63.283413 468.719971,63.283413 
	C468.719971,76.627853 468.719971,90.032570 468.719971,103.805504 
	C433.708740,103.805504 398.646271,103.805504 363.818237,103.805504 
	C372.180542,112.085098 380.484528,120.306984 388.753448,128.494141 
	C378.764008,139.263657 378.766357,139.261292 369.329498,129.830582 
	C358.604736,119.112762 347.875092,108.399796 336.644501,97.182281 
	C338.299927,95.756821 339.903137,94.376350 341.754669,92.745575 
z"/>
</svg>