{
	"asset":{
		"generator":"Khronos glTF Blender I/O v4.1.63",
		"version":"2.0"
	},
	"scene":0,
	"scenes":[
		{
			"name":"Scene",
			"nodes":[
				0,
				8
			]
		}
	],
	"nodes":[
		{
			"name":"lines",
			"rotation":[
				0.7071068286895752,
				0,
				0,
				0.7071068286895752
			],
			"translation":[
				3,
				0,
				-0.10000000149011612
			]
		},
		{
			"name":"bend.3",
			"rotation":[
				-5.95429539007597e-10,
				-1.036863039871605e-09,
				-1.0368633729385124e-09,
				1
			],
			"translation":[
				-1.6241181576698294e-12,
				0.6449969410896301,
				3.905296225292787e-15
			]
		},
		{
			"children":[
				1
			],
			"name":"bend.2",
			"rotation":[
				-6.5977143748341405e-09,
				-1.148908879144983e-08,
				-1.1489067475167758e-08,
				1
			],
			"translation":[
				-1.8230592816609326e-12,
				0.6467400789260864,
				1.59464455529168e-15
			]
		},
		{
			"children":[
				2
			],
			"name":"bend.1",
			"rotation":[
				-4.31914948251233e-08,
				-6.190320078758305e-08,
				-0.7071067690849304,
				0.7071067690849304
			],
			"translation":[
				-1.0001131296157837,
				2.1219253540039062e-05,
				0
			]
		},
		{
			"name":"wings",
			"rotation":[
				0.5,
				-0.5,
				-0.5,
				0.5
			],
			"translation":[
				-1.0001131296157837,
				2.1219253540039062e-05,
				0
			]
		},
		{
			"children":[
				3,
				4
			],
			"name":"rotation.global",
			"rotation":[
				-3.552713678800501e-15,
				-1.1920927533992653e-07,
				4.235165241142481e-22,
				1
			]
		},
		{
			"children":[
				5
			],
			"name":"rotation.view",
			"rotation":[
				-2.980232594040899e-08,
				1.1920927533992653e-07,
				0,
				1
			],
			"scale":[
				1,
				0.9999999403953552,
				0.9999999403953552
			]
		},
		{
			"mesh":0,
			"name":"paper_plane",
			"skin":0
		},
		{
			"children":[
				7,
				6
			],
			"name":"Armature_plane"
		}
	],
	"materials":[
		{
			"doubleSided":true,
			"name":"white",
			"pbrMetallicRoughness":{
				"baseColorFactor":[
					1,
					1,
					1,
					1
				],
				"metallicFactor":0,
				"roughnessFactor":0.5
			}
		}
	],
	"meshes":[
		{
			"extras":{
				"targetNames":[
					"wings"
				]
			},
			"name":"Plane",
			"primitives":[
				{
					"attributes":{
						"POSITION":0,
						"NORMAL":1,
						"JOINTS_0":2,
						"WEIGHTS_0":3
					},
					"indices":4,
					"material":0,
					"targets":[
						{
							"POSITION":5,
							"NORMAL":6
						}
					]
				}
			],
			"weights":[
				0
			]
		}
	],
	"skins":[
		{
			"inverseBindMatrices":7,
			"joints":[
				6,
				5,
				3,
				2,
				1,
				4
			],
			"name":"Armature_plane"
		}
	],
	"accessors":[
		{
			"bufferView":0,
			"componentType":5126,
			"count":51,
			"max":[
				0.9998975992202759,
				6.638932973146439e-06,
				0.5595826506614685
			],
			"min":[
				-1.0001025199890137,
				-0.4023401439189911,
				-0.5595827698707581
			],
			"type":"VEC3"
		},
		{
			"bufferView":1,
			"componentType":5126,
			"count":51,
			"type":"VEC3"
		},
		{
			"bufferView":2,
			"componentType":5121,
			"count":51,
			"type":"VEC4"
		},
		{
			"bufferView":3,
			"componentType":5126,
			"count":51,
			"type":"VEC4"
		},
		{
			"bufferView":4,
			"componentType":5123,
			"count":96,
			"type":"SCALAR"
		},
		{
			"bufferView":5,
			"componentType":5126,
			"count":51,
			"max":[
				0,
				0,
				0.570675790309906
			],
			"min":[
				-2.9802322387695312e-08,
				-4.656612873077393e-10,
				-0.5706759095191956
			],
			"type":"VEC3"
		},
		{
			"componentType":5126,
			"count":51,
			"sparse":{
				"count":8,
				"indices":{
					"bufferView":6,
					"componentType":5121
				},
				"values":{
					"bufferView":7
				}
			},
			"type":"VEC3"
		},
		{
			"bufferView":8,
			"componentType":5126,
			"count":6,
			"type":"MAT4"
		}
	],
	"bufferViews":[
		{
			"buffer":0,
			"byteLength":612,
			"byteOffset":0,
			"target":34962
		},
		{
			"buffer":0,
			"byteLength":612,
			"byteOffset":612,
			"target":34962
		},
		{
			"buffer":0,
			"byteLength":204,
			"byteOffset":1224,
			"target":34962
		},
		{
			"buffer":0,
			"byteLength":816,
			"byteOffset":1428,
			"target":34962
		},
		{
			"buffer":0,
			"byteLength":192,
			"byteOffset":2244,
			"target":34963
		},
		{
			"buffer":0,
			"byteLength":612,
			"byteOffset":2436,
			"target":34962
		},
		{
			"buffer":0,
			"byteLength":8,
			"byteOffset":3048
		},
		{
			"buffer":0,
			"byteLength":96,
			"byteOffset":3056
		},
		{
			"buffer":0,
			"byteLength":384,
			"byteOffset":3152
		}
	],
	"buffers":[
		{
			"byteLength":3536,
			"uri":"paper_plane.bin"
		}
	]
}
